<?xml version="1.0" encoding="UTF-8"?>
<!DOCTYPE svg
  PUBLIC '-//W3C//DTD SVG 1.1//EN'
  'http://www.w3.org/Graphics/SVG/1.1/DTD/svg11.dtd'>
<svg version="1.1" xmlns="http://www.w3.org/2000/svg" width="65.000mm" height="23.000mm">
    <!--Autogenerated with python-barcode 0.13.1-->
    <g id="barcode_group">
        <rect width="100%" height="100%" style="fill:white"/>
        <rect x="2.540mm" y="1.000mm" width="0.200mm" height="15.000mm" style="fill:black;"/>
        <rect x="2.740mm" y="1.000mm" width="0.600mm" height="15.000mm" style="fill:white;"/>
        <rect x="3.340mm" y="1.000mm" width="0.200mm" height="15.000mm" style="fill:black;"/>
        <rect x="3.540mm" y="1.000mm" width="0.200mm" height="15.000mm" style="fill:white;"/>
        <rect x="3.740mm" y="1.000mm" width="0.600mm" height="15.000mm" style="fill:black;"/>
        <rect x="4.340mm" y="1.000mm" width="0.200mm" height="15.000mm" style="fill:white;"/>
        <rect x="4.540mm" y="1.000mm" width="0.600mm" height="15.000mm" style="fill:black;"/>
        <rect x="5.140mm" y="1.000mm" width="0.200mm" height="15.000mm" style="fill:white;"/>
        <rect x="5.340mm" y="1.000mm" width="0.200mm" height="15.000mm" style="fill:black;"/>
        <rect x="5.540mm" y="1.000mm" width="0.200mm" height="15.000mm" style="fill:white;"/>
        <rect x="5.740mm" y="1.000mm" width="0.200mm" height="15.000mm" style="fill:black;"/>
        <rect x="5.940mm" y="1.000mm" width="0.200mm" height="15.000mm" style="fill:white;"/>
        <rect x="6.140mm" y="1.000mm" width="0.200mm" height="15.000mm" style="fill:black;"/>
        <rect x="6.340mm" y="1.000mm" width="0.200mm" height="15.000mm" style="fill:white;"/>
        <rect x="6.540mm" y="1.000mm" width="0.600mm" height="15.000mm" style="fill:black;"/>
        <rect x="7.140mm" y="1.000mm" width="0.600mm" height="15.000mm" style="fill:white;"/>
        <rect x="7.740mm" y="1.000mm" width="0.200mm" height="15.000mm" style="fill:black;"/>
        <rect x="7.940mm" y="1.000mm" width="0.200mm" height="15.000mm" style="fill:white;"/>
        <rect x="8.140mm" y="1.000mm" width="0.600mm" height="15.000mm" style="fill:black;"/>
        <rect x="8.740mm" y="1.000mm" width="0.200mm" height="15.000mm" style="fill:white;"/>
        <rect x="8.940mm" y="1.000mm" width="0.600mm" height="15.000mm" style="fill:black;"/>
        <rect x="9.540mm" y="1.000mm" width="0.200mm" height="15.000mm" style="fill:white;"/>
        <rect x="9.740mm" y="1.000mm" width="0.200mm" height="15.000mm" style="fill:black;"/>
        <rect x="9.940mm" y="1.000mm" width="0.200mm" height="15.000mm" style="fill:white;"/>
        <rect x="10.140mm" y="1.000mm" width="0.600mm" height="15.000mm" style="fill:black;"/>
        <rect x="10.740mm" y="1.000mm" width="0.600mm" height="15.000mm" style="fill:white;"/>
        <rect x="11.340mm" y="1.000mm" width="0.200mm" height="15.000mm" style="fill:black;"/>
        <rect x="11.540mm" y="1.000mm" width="0.200mm" height="15.000mm" style="fill:white;"/>
        <rect x="11.740mm" y="1.000mm" width="0.200mm" height="15.000mm" style="fill:black;"/>
        <rect x="11.940mm" y="1.000mm" width="0.200mm" height="15.000mm" style="fill:white;"/>
        <rect x="12.140mm" y="1.000mm" width="0.200mm" height="15.000mm" style="fill:black;"/>
        <rect x="12.340mm" y="1.000mm" width="0.200mm" height="15.000mm" style="fill:white;"/>
        <rect x="12.540mm" y="1.000mm" width="0.600mm" height="15.000mm" style="fill:black;"/>
        <rect x="13.140mm" y="1.000mm" width="0.200mm" height="15.000mm" style="fill:white;"/>
        <rect x="13.340mm" y="1.000mm" width="0.200mm" height="15.000mm" style="fill:black;"/>
        <rect x="13.540mm" y="1.000mm" width="0.600mm" height="15.000mm" style="fill:white;"/>
        <rect x="14.140mm" y="1.000mm" width="0.200mm" height="15.000mm" style="fill:black;"/>
        <rect x="14.340mm" y="1.000mm" width="0.200mm" height="15.000mm" style="fill:white;"/>
        <rect x="14.540mm" y="1.000mm" width="0.600mm" height="15.000mm" style="fill:black;"/>
        <rect x="15.140mm" y="1.000mm" width="0.200mm" height="15.000mm" style="fill:white;"/>
        <rect x="15.340mm" y="1.000mm" width="0.200mm" height="15.000mm" style="fill:black;"/>
        <rect x="15.540mm" y="1.000mm" width="0.200mm" height="15.000mm" style="fill:white;"/>
        <rect x="15.740mm" y="1.000mm" width="0.200mm" height="15.000mm" style="fill:black;"/>
        <rect x="15.940mm" y="1.000mm" width="0.200mm" height="15.000mm" style="fill:white;"/>
        <rect x="16.140mm" y="1.000mm" width="0.600mm" height="15.000mm" style="fill:black;"/>
        <rect x="16.740mm" y="1.000mm" width="0.600mm" height="15.000mm" style="fill:white;"/>
        <rect x="17.340mm" y="1.000mm" width="0.600mm" height="15.000mm" style="fill:black;"/>
        <rect x="17.940mm" y="1.000mm" width="0.200mm" height="15.000mm" style="fill:white;"/>
        <rect x="18.140mm" y="1.000mm" width="0.200mm" height="15.000mm" style="fill:black;"/>
        <rect x="18.340mm" y="1.000mm" width="0.200mm" height="15.000mm" style="fill:white;"/>
        <rect x="18.540mm" y="1.000mm" width="0.200mm" height="15.000mm" style="fill:black;"/>
        <rect x="18.740mm" y="1.000mm" width="0.200mm" height="15.000mm" style="fill:white;"/>
        <rect x="18.940mm" y="1.000mm" width="0.600mm" height="15.000mm" style="fill:black;"/>
        <rect x="19.540mm" y="1.000mm" width="0.200mm" height="15.000mm" style="fill:white;"/>
        <rect x="19.740mm" y="1.000mm" width="0.200mm" height="15.000mm" style="fill:black;"/>
        <rect x="19.940mm" y="1.000mm" width="0.600mm" height="15.000mm" style="fill:white;"/>
        <rect x="20.540mm" y="1.000mm" width="0.600mm" height="15.000mm" style="fill:black;"/>
        <rect x="21.140mm" y="1.000mm" width="0.200mm" height="15.000mm" style="fill:white;"/>
        <rect x="21.340mm" y="1.000mm" width="0.200mm" height="15.000mm" style="fill:black;"/>
        <rect x="21.540mm" y="1.000mm" width="0.200mm" height="15.000mm" style="fill:white;"/>
        <rect x="21.740mm" y="1.000mm" width="0.200mm" height="15.000mm" style="fill:black;"/>
        <rect x="21.940mm" y="1.000mm" width="0.200mm" height="15.000mm" style="fill:white;"/>
        <rect x="22.140mm" y="1.000mm" width="0.200mm" height="15.000mm" style="fill:black;"/>
        <rect x="22.340mm" y="1.000mm" width="0.200mm" height="15.000mm" style="fill:white;"/>
        <rect x="22.540mm" y="1.000mm" width="0.600mm" height="15.000mm" style="fill:black;"/>
        <rect x="23.140mm" y="1.000mm" width="0.200mm" height="15.000mm" style="fill:white;"/>
        <rect x="23.340mm" y="1.000mm" width="0.600mm" height="15.000mm" style="fill:black;"/>
        <rect x="23.940mm" y="1.000mm" width="0.600mm" height="15.000mm" style="fill:white;"/>
        <rect x="24.540mm" y="1.000mm" width="0.200mm" height="15.000mm" style="fill:black;"/>
        <rect x="24.740mm" y="1.000mm" width="0.200mm" height="15.000mm" style="fill:white;"/>
        <rect x="24.940mm" y="1.000mm" width="0.200mm" height="15.000mm" style="fill:black;"/>
        <rect x="25.140mm" y="1.000mm" width="0.200mm" height="15.000mm" style="fill:white;"/>
        <rect x="25.340mm" y="1.000mm" width="0.600mm" height="15.000mm" style="fill:black;"/>
        <rect x="25.940mm" y="1.000mm" width="0.600mm" height="15.000mm" style="fill:white;"/>
        <rect x="26.540mm" y="1.000mm" width="0.200mm" height="15.000mm" style="fill:black;"/>
        <rect x="26.740mm" y="1.000mm" width="0.200mm" height="15.000mm" style="fill:white;"/>
        <rect x="26.940mm" y="1.000mm" width="0.600mm" height="15.000mm" style="fill:black;"/>
        <rect x="27.540mm" y="1.000mm" width="0.200mm" height="15.000mm" style="fill:white;"/>
        <rect x="27.740mm" y="1.000mm" width="0.200mm" height="15.000mm" style="fill:black;"/>
        <rect x="27.940mm" y="1.000mm" width="0.200mm" height="15.000mm" style="fill:white;"/>
        <rect x="28.140mm" y="1.000mm" width="0.200mm" height="15.000mm" style="fill:black;"/>
        <rect x="28.340mm" y="1.000mm" width="0.200mm" height="15.000mm" style="fill:white;"/>
        <rect x="28.540mm" y="1.000mm" width="0.600mm" height="15.000mm" style="fill:black;"/>
        <rect x="29.140mm" y="1.000mm" width="0.600mm" height="15.000mm" style="fill:white;"/>
        <rect x="29.740mm" y="1.000mm" width="0.600mm" height="15.000mm" style="fill:black;"/>
        <rect x="30.340mm" y="1.000mm" width="0.200mm" height="15.000mm" style="fill:white;"/>
        <rect x="30.540mm" y="1.000mm" width="0.200mm" height="15.000mm" style="fill:black;"/>
        <rect x="30.740mm" y="1.000mm" width="0.200mm" height="15.000mm" style="fill:white;"/>
        <rect x="30.940mm" y="1.000mm" width="0.200mm" height="15.000mm" style="fill:black;"/>
        <rect x="31.140mm" y="1.000mm" width="0.200mm" height="15.000mm" style="fill:white;"/>
        <rect x="31.340mm" y="1.000mm" width="0.200mm" height="15.000mm" style="fill:black;"/>
        <rect x="31.540mm" y="1.000mm" width="0.200mm" height="15.000mm" style="fill:white;"/>
        <rect x="31.740mm" y="1.000mm" width="0.200mm" height="15.000mm" style="fill:black;"/>
        <rect x="31.940mm" y="1.000mm" width="0.600mm" height="15.000mm" style="fill:white;"/>
        <rect x="32.540mm" y="1.000mm" width="0.200mm" height="15.000mm" style="fill:black;"/>
        <rect x="32.740mm" y="1.000mm" width="0.200mm" height="15.000mm" style="fill:white;"/>
        <rect x="32.940mm" y="1.000mm" width="0.600mm" height="15.000mm" style="fill:black;"/>
        <rect x="33.540mm" y="1.000mm" width="0.200mm" height="15.000mm" style="fill:white;"/>
        <rect x="33.740mm" y="1.000mm" width="0.600mm" height="15.000mm" style="fill:black;"/>
        <rect x="34.340mm" y="1.000mm" width="0.200mm" height="15.000mm" style="fill:white;"/>
        <rect x="34.540mm" y="1.000mm" width="0.200mm" height="15.000mm" style="fill:black;"/>
        <rect x="34.740mm" y="1.000mm" width="0.200mm" height="15.000mm" style="fill:white;"/>
        <rect x="34.940mm" y="1.000mm" width="0.200mm" height="15.000mm" style="fill:black;"/>
        <rect x="35.140mm" y="1.000mm" width="0.600mm" height="15.000mm" style="fill:white;"/>
        <rect x="35.740mm" y="1.000mm" width="0.600mm" height="15.000mm" style="fill:black;"/>
        <rect x="36.340mm" y="1.000mm" width="0.200mm" height="15.000mm" style="fill:white;"/>
        <rect x="36.540mm" y="1.000mm" width="0.200mm" height="15.000mm" style="fill:black;"/>
        <rect x="36.740mm" y="1.000mm" width="0.200mm" height="15.000mm" style="fill:white;"/>
        <rect x="36.940mm" y="1.000mm" width="0.600mm" height="15.000mm" style="fill:black;"/>
        <rect x="37.540mm" y="1.000mm" width="0.200mm" height="15.000mm" style="fill:white;"/>
        <rect x="37.740mm" y="1.000mm" width="0.200mm" height="15.000mm" style="fill:black;"/>
        <rect x="37.940mm" y="1.000mm" width="0.200mm" height="15.000mm" style="fill:white;"/>
        <rect x="38.140mm" y="1.000mm" width="0.200mm" height="15.000mm" style="fill:black;"/>
        <rect x="38.340mm" y="1.000mm" width="0.600mm" height="15.000mm" style="fill:white;"/>
        <rect x="38.940mm" y="1.000mm" width="0.600mm" height="15.000mm" style="fill:black;"/>
        <rect x="39.540mm" y="1.000mm" width="0.200mm" height="15.000mm" style="fill:white;"/>
        <rect x="39.740mm" y="1.000mm" width="0.600mm" height="15.000mm" style="fill:black;"/>
        <rect x="40.340mm" y="1.000mm" width="0.200mm" height="15.000mm" style="fill:white;"/>
        <rect x="40.540mm" y="1.000mm" width="0.200mm" height="15.000mm" style="fill:black;"/>
        <rect x="40.740mm" y="1.000mm" width="0.200mm" height="15.000mm" style="fill:white;"/>
        <rect x="40.940mm" y="1.000mm" width="0.200mm" height="15.000mm" style="fill:black;"/>
        <rect x="41.140mm" y="1.000mm" width="0.200mm" height="15.000mm" style="fill:white;"/>
        <rect x="41.340mm" y="1.000mm" width="0.200mm" height="15.000mm" style="fill:black;"/>
        <rect x="41.540mm" y="1.000mm" width="0.600mm" height="15.000mm" style="fill:white;"/>
        <rect x="42.140mm" y="1.000mm" width="0.600mm" height="15.000mm" style="fill:black;"/>
        <rect x="42.740mm" y="1.000mm" width="0.200mm" height="15.000mm" style="fill:white;"/>
        <rect x="42.940mm" y="1.000mm" width="0.600mm" height="15.000mm" style="fill:black;"/>
        <rect x="43.540mm" y="1.000mm" width="0.200mm" height="15.000mm" style="fill:white;"/>
        <rect x="43.740mm" y="1.000mm" width="0.200mm" height="15.000mm" style="fill:black;"/>
        <rect x="43.940mm" y="1.000mm" width="0.200mm" height="15.000mm" style="fill:white;"/>
        <rect x="44.140mm" y="1.000mm" width="0.600mm" height="15.000mm" style="fill:black;"/>
        <rect x="44.740mm" y="1.000mm" width="0.200mm" height="15.000mm" style="fill:white;"/>
        <rect x="44.940mm" y="1.000mm" width="0.600mm" height="15.000mm" style="fill:black;"/>
        <rect x="45.540mm" y="1.000mm" width="0.600mm" height="15.000mm" style="fill:white;"/>
        <rect x="46.140mm" y="1.000mm" width="0.200mm" height="15.000mm" style="fill:black;"/>
        <rect x="46.340mm" y="1.000mm" width="0.200mm" height="15.000mm" style="fill:white;"/>
        <rect x="46.540mm" y="1.000mm" width="0.200mm" height="15.000mm" style="fill:black;"/>
        <rect x="46.740mm" y="1.000mm" width="0.200mm" height="15.000mm" style="fill:white;"/>
        <rect x="46.940mm" y="1.000mm" width="0.200mm" height="15.000mm" style="fill:black;"/>
        <rect x="47.140mm" y="1.000mm" width="0.200mm" height="15.000mm" style="fill:white;"/>
        <rect x="47.340mm" y="1.000mm" width="0.200mm" height="15.000mm" style="fill:black;"/>
        <rect x="47.540mm" y="1.000mm" width="0.200mm" height="15.000mm" style="fill:white;"/>
        <rect x="47.740mm" y="1.000mm" width="0.600mm" height="15.000mm" style="fill:black;"/>
        <rect x="48.340mm" y="1.000mm" width="0.600mm" height="15.000mm" style="fill:white;"/>
        <rect x="48.940mm" y="1.000mm" width="0.200mm" height="15.000mm" style="fill:black;"/>
        <rect x="49.140mm" y="1.000mm" width="0.200mm" height="15.000mm" style="fill:white;"/>
        <rect x="49.340mm" y="1.000mm" width="0.200mm" height="15.000mm" style="fill:black;"/>
        <rect x="49.540mm" y="1.000mm" width="0.200mm" height="15.000mm" style="fill:white;"/>
        <rect x="49.740mm" y="1.000mm" width="0.600mm" height="15.000mm" style="fill:black;"/>
        <rect x="50.340mm" y="1.000mm" width="0.200mm" height="15.000mm" style="fill:white;"/>
        <rect x="50.540mm" y="1.000mm" width="0.200mm" height="15.000mm" style="fill:black;"/>
        <rect x="50.740mm" y="1.000mm" width="0.200mm" height="15.000mm" style="fill:white;"/>
        <rect x="50.940mm" y="1.000mm" width="0.200mm" height="15.000mm" style="fill:black;"/>
        <rect x="51.140mm" y="1.000mm" width="0.600mm" height="15.000mm" style="fill:white;"/>
        <rect x="51.740mm" y="1.000mm" width="0.600mm" height="15.000mm" style="fill:black;"/>
        <rect x="52.340mm" y="1.000mm" width="0.200mm" height="15.000mm" style="fill:white;"/>
        <rect x="52.540mm" y="1.000mm" width="0.200mm" height="15.000mm" style="fill:black;"/>
        <rect x="52.740mm" y="1.000mm" width="0.200mm" height="15.000mm" style="fill:white;"/>
        <rect x="52.940mm" y="1.000mm" width="0.600mm" height="15.000mm" style="fill:black;"/>
        <rect x="53.540mm" y="1.000mm" width="0.200mm" height="15.000mm" style="fill:white;"/>
        <rect x="53.740mm" y="1.000mm" width="0.200mm" height="15.000mm" style="fill:black;"/>
        <rect x="53.940mm" y="1.000mm" width="0.200mm" height="15.000mm" style="fill:white;"/>
        <rect x="54.140mm" y="1.000mm" width="0.200mm" height="15.000mm" style="fill:black;"/>
        <rect x="54.340mm" y="1.000mm" width="0.600mm" height="15.000mm" style="fill:white;"/>
        <rect x="54.940mm" y="1.000mm" width="0.600mm" height="15.000mm" style="fill:black;"/>
        <rect x="55.540mm" y="1.000mm" width="0.200mm" height="15.000mm" style="fill:white;"/>
        <rect x="55.740mm" y="1.000mm" width="0.600mm" height="15.000mm" style="fill:black;"/>
        <rect x="56.340mm" y="1.000mm" width="0.200mm" height="15.000mm" style="fill:white;"/>
        <rect x="56.540mm" y="1.000mm" width="0.200mm" height="15.000mm" style="fill:black;"/>
        <rect x="56.740mm" y="1.000mm" width="0.200mm" height="15.000mm" style="fill:white;"/>
        <rect x="56.940mm" y="1.000mm" width="0.600mm" height="15.000mm" style="fill:black;"/>
        <rect x="57.540mm" y="1.000mm" width="0.200mm" height="15.000mm" style="fill:white;"/>
        <rect x="57.740mm" y="1.000mm" width="0.200mm" height="15.000mm" style="fill:black;"/>
        <rect x="57.940mm" y="1.000mm" width="0.200mm" height="15.000mm" style="fill:white;"/>
        <rect x="58.140mm" y="1.000mm" width="0.200mm" height="15.000mm" style="fill:black;"/>
        <rect x="58.340mm" y="1.000mm" width="0.600mm" height="15.000mm" style="fill:white;"/>
        <rect x="58.940mm" y="1.000mm" width="0.200mm" height="15.000mm" style="fill:black;"/>
        <rect x="59.140mm" y="1.000mm" width="0.200mm" height="15.000mm" style="fill:white;"/>
        <rect x="59.340mm" y="1.000mm" width="0.600mm" height="15.000mm" style="fill:black;"/>
        <rect x="59.940mm" y="1.000mm" width="0.200mm" height="15.000mm" style="fill:white;"/>
        <rect x="60.140mm" y="1.000mm" width="0.200mm" height="15.000mm" style="fill:black;"/>
        <rect x="60.340mm" y="1.000mm" width="0.600mm" height="15.000mm" style="fill:white;"/>
        <rect x="60.940mm" y="1.000mm" width="0.200mm" height="15.000mm" style="fill:black;"/>
        <rect x="61.140mm" y="1.000mm" width="0.200mm" height="15.000mm" style="fill:white;"/>
        <rect x="61.340mm" y="1.000mm" width="0.600mm" height="15.000mm" style="fill:black;"/>
        <rect x="61.940mm" y="1.000mm" width="0.200mm" height="15.000mm" style="fill:white;"/>
        <rect x="62.140mm" y="1.000mm" width="0.600mm" height="15.000mm" style="fill:black;"/>
        <rect x="62.740mm" y="1.000mm" width="0.200mm" height="15.000mm" style="fill:white;"/>
        <rect x="62.940mm" y="1.000mm" width="0.200mm" height="15.000mm" style="fill:black;"/>
        <text x="32.840mm" y="21.000mm" style="fill:black;font-size:10pt;text-anchor:middle;">DEBJIT9674003240A</text>
    </g>
</svg>
